<svg width="18" height="18" viewBox="0 0 18 18" fill="none" xmlns="http://www.w3.org/2000/svg">
<path d="M10.3019 10.9526L13.7444 7.51012C13.8841 7.3696 13.9625 7.17951 13.9625 6.98137C13.9625 6.78323 13.8841 6.59314 13.7444 6.45262C13.6747 6.38233 13.5918 6.32653 13.5004 6.28845C13.409 6.25038 13.3109 6.23077 13.2119 6.23077C13.1129 6.23077 13.0149 6.25038 12.9235 6.28845C12.8321 6.32653 12.7492 6.38233 12.6794 6.45262L9.24443 9.90262C9.17471 9.97292 9.09176 10.0287 9.00036 10.0668C8.90897 10.1049 8.81094 10.1245 8.71193 10.1245C8.61292 10.1245 8.51489 10.1049 8.4235 10.0668C8.3321 10.0287 8.24915 9.97292 8.17943 9.90262L4.74443 6.45262C4.6042 6.31139 4.4136 6.23166 4.21458 6.23096C4.01556 6.23025 3.82441 6.30864 3.68318 6.44887C3.54195 6.58911 3.46221 6.7797 3.46151 6.97872C3.46081 7.17774 3.5392 7.3689 3.67943 7.51012L7.12193 10.9526C7.54381 11.374 8.11568 11.6106 8.71193 11.6106C9.30818 11.6106 9.88005 11.374 10.3019 10.9526Z" fill="#8B8B8B"/>
</svg>
