<svg width="20" height="20" viewBox="0 0 20 20" fill="none" xmlns="http://www.w3.org/2000/svg">
<g clip-path="url(#clip0_11_372)">
<path d="M20 20H10.0051C8.05236 19.9991 6.1425 19.4275 4.5108 18.3558C2.8791 17.2841 1.59682 15.759 0.821897 13.9683C0.0469774 12.1776 -0.186736 10.1996 0.149544 8.27794C0.485824 6.35624 1.37741 4.57477 2.71448 3.15295C4.05156 1.73114 5.77572 0.731077 7.67461 0.275949C9.5735 -0.179179 11.5642 -0.0694963 13.4014 0.591488C15.2387 1.25247 16.8423 2.43589 18.0148 3.99597C19.1872 5.55606 19.8773 7.42468 20 9.37167V9.42417V20ZM10.0051 1.66667C7.79281 1.66667 5.6711 2.54464 4.10675 4.10744C2.5424 5.67025 1.66356 7.78986 1.66356 10C1.66356 12.2101 2.5424 14.3298 4.10675 15.8926C5.6711 17.4554 7.79281 18.3333 10.0051 18.3333H18.3317V9.45084C18.1887 7.3411 17.2496 5.36419 15.704 3.91936C14.1585 2.47453 12.1218 1.66943 10.0051 1.66667Z" fill="#5D5D64"/>
<path d="M5.81934 5.83333H10.8243V7.49999H5.81934V5.83333ZM5.81934 9.16666H14.1609V10.8333H5.81934V9.16666ZM5.81934 12.5H14.1609V14.1667H5.81934V12.5Z" fill="#5D5D64"/>
</g>
<defs>
<clipPath id="clip0_11_372">
<rect width="20" height="20" fill="white"/>
</clipPath>
</defs>
</svg>
