<svg width="20" height="20" viewBox="0 0 20 20" fill="none" xmlns="http://www.w3.org/2000/svg">
<g clip-path="url(#clip0_26_10)">
<path d="M20 3.33333V16.6667C20 18.505 18.505 20 16.6667 20H14.1667C13.9457 20 13.7337 19.9122 13.5774 19.7559C13.4211 19.5996 13.3333 19.3877 13.3333 19.1667C13.3333 18.9457 13.4211 18.7337 13.5774 18.5774C13.7337 18.4211 13.9457 18.3333 14.1667 18.3333H16.6667C17.5858 18.3333 18.3333 17.5858 18.3333 16.6667V3.33333C18.3333 2.41417 17.5858 1.66667 16.6667 1.66667H14.1667C13.9457 1.66667 13.7337 1.57887 13.5774 1.42259C13.4211 1.26631 13.3333 1.05435 13.3333 0.833333C13.3333 0.61232 13.4211 0.400358 13.5774 0.244078C13.7337 0.0877974 13.9457 0 14.1667 0L16.6667 0C18.505 0 20 1.495 20 3.33333ZM14.1542 12.0417L9.74333 16.435C9.53426 16.6425 9.28622 16.8066 9.01349 16.9179C8.74076 17.0291 8.44872 17.0854 8.15417 17.0833C7.84667 17.0833 7.53417 17.0233 7.23417 16.8992C6.37333 16.545 5.83667 15.7725 5.83333 14.8842V13.3333H2.5C1.12167 13.3333 0 12.2117 0 10.8333V9.16667C0 7.78833 1.12167 6.66667 2.5 6.66667H5.83333V5.1175C5.8375 4.22583 6.37417 3.45333 7.235 3.1C8.11417 2.73917 9.1 2.92083 9.745 3.56583L14.1533 7.955C14.6943 8.49725 14.9981 9.23195 14.9981 9.99792C14.9981 10.7639 14.6943 11.4986 14.1533 12.0408L14.1542 12.0417ZM12.9758 9.135L8.5675 4.74583C8.36333 4.54167 8.07333 4.55917 7.86917 4.64167C7.75917 4.6875 7.50167 4.825 7.50083 5.12167V7.5C7.50083 7.72101 7.41304 7.93297 7.25676 8.08926C7.10048 8.24554 6.88851 8.33333 6.6675 8.33333H2.5C2.04083 8.33333 1.66667 8.7075 1.66667 9.16667V10.8333C1.66667 11.2925 2.04083 11.6667 2.5 11.6667H6.66667C6.88768 11.6667 7.09964 11.7545 7.25592 11.9107C7.4122 12.067 7.5 12.279 7.5 12.5V14.8808C7.50083 15.175 7.75833 15.3133 7.86833 15.3583C8.07167 15.4425 8.3625 15.46 8.565 15.2558L12.9758 10.8625C13.2041 10.633 13.3322 10.3224 13.3322 9.99875C13.3322 9.67506 13.2041 9.36453 12.9758 9.135Z" fill="#8B8B8B"/>
</g>
<defs>
<clipPath id="clip0_26_10">
<rect width="20" height="20" fill="white"/>
</clipPath>
</defs>
</svg>
