<svg width="22" height="26" viewBox="0 0 22 26" fill="none" xmlns="http://www.w3.org/2000/svg">
<g clip-path="url(#clip0_28_69)">
<path d="M20.9 4.33333H17.49C17.2347 3.1107 16.5592 2.01213 15.5774 1.22278C14.5956 0.433431 13.3674 0.00157573 12.1 0L9.9 0C8.63258 0.00157573 7.40445 0.433431 6.42262 1.22278C5.4408 2.01213 4.76531 3.1107 4.51 4.33333H1.1C0.808262 4.33333 0.528472 4.44747 0.322183 4.65063C0.115892 4.8538 0 5.12935 0 5.41667C0 5.70398 0.115892 5.97953 0.322183 6.1827C0.528472 6.38586 0.808262 6.5 1.1 6.5H2.2V20.5833C2.20175 22.0194 2.78177 23.3961 3.81284 24.4116C4.84391 25.427 6.24185 25.9983 7.7 26H14.3C15.7582 25.9983 17.1561 25.427 18.1872 24.4116C19.2182 23.3961 19.7983 22.0194 19.8 20.5833V6.5H20.9C21.1917 6.5 21.4715 6.38586 21.6778 6.1827C21.8841 5.97953 22 5.70398 22 5.41667C22 5.12935 21.8841 4.8538 21.6778 4.65063C21.4715 4.44747 21.1917 4.33333 20.9 4.33333ZM9.9 2.16667H12.1C12.7823 2.16749 13.4476 2.37616 14.0048 2.76406C14.5619 3.15197 14.9836 3.70012 15.2119 4.33333H6.7881C7.01644 3.70012 7.43809 3.15197 7.99523 2.76406C8.55236 2.37616 9.2177 2.16749 9.9 2.16667ZM17.6 20.5833C17.6 21.4453 17.2523 22.2719 16.6335 22.8814C16.0146 23.4909 15.1752 23.8333 14.3 23.8333H7.7C6.82479 23.8333 5.98542 23.4909 5.36655 22.8814C4.74768 22.2719 4.4 21.4453 4.4 20.5833V6.5H17.6V20.5833Z" fill="#8B8B8B"/>
<path d="M8.79995 19.5C9.09169 19.5 9.37148 19.3859 9.57777 19.1827C9.78406 18.9796 9.89995 18.704 9.89995 18.4167V11.9167C9.89995 11.6294 9.78406 11.3538 9.57777 11.1507C9.37148 10.9475 9.09169 10.8334 8.79995 10.8334C8.50821 10.8334 8.22842 10.9475 8.02213 11.1507C7.81584 11.3538 7.69995 11.6294 7.69995 11.9167V18.4167C7.69995 18.704 7.81584 18.9796 8.02213 19.1827C8.22842 19.3859 8.50821 19.5 8.79995 19.5ZM13.2 19.5C13.4917 19.5 13.7715 19.3859 13.9778 19.1827C14.1841 18.9796 14.3 18.704 14.3 18.4167V11.9167C14.3 11.6294 14.1841 11.3538 13.9778 11.1507C13.7715 10.9475 13.4917 10.8334 13.2 10.8334C12.9082 10.8334 12.6284 10.9475 12.4221 11.1507C12.2158 11.3538 12.1 11.6294 12.1 11.9167V18.4167C12.1 18.704 12.2158 18.9796 12.4221 19.1827C12.6284 19.3859 12.9082 19.5 13.2 19.5Z" fill="#8B8B8B"/>
</g>
<defs>
<clipPath id="clip0_28_69">
<rect width="22" height="26" fill="white"/>
</clipPath>
</defs>
</svg>
