<svg width="64.000000" height="64.000000" viewBox="0 0 64 64" fill="none" xmlns="http://www.w3.org/2000/svg" xmlns:xlink="http://www.w3.org/1999/xlink">
	<desc>
			Created with Pixso.
	</desc>
	<defs/>
	<rect id="Прямоугольник 1" rx="20.000000" width="64.000000" height="64.000000" fill="#FFFFFF" fill-opacity="1.000000"/>
	<path id="Voltech" d="M39.8291 17.2012L32.3877 34L30.6357 34L23.1943 17.2012L25.1162 17.2012L31.5498 31.791L38.0303 17.2012L39.8291 17.2012Z" fill="#000000" fill-opacity="1.000000" fill-rule="evenodd"/>
	<path id="Voltech" d="M20.0156 48.4883Q19.6953 48.7773 19.2227 48.9297Q18.7539 49.0781 18.2383 49.0781Q17.0547 49.0781 16.4141 48.4414Q15.7773 47.8008 15.7773 46.6328L15.7773 41.543L14.2734 41.543L14.2734 40.5859L15.7773 40.5859L15.7773 38.7422L16.9102 38.7422L16.9102 40.5859L19.4727 40.5859L19.4727 41.543L16.9102 41.543L16.9102 46.5664Q16.9102 47.3203 17.2852 47.7148Q17.6641 48.1055 18.3672 48.1055Q18.7188 48.1055 19.0469 47.9922Q19.375 47.8789 19.6172 47.6719L20.0156 48.4883ZM29.1022 45.1445L22.0631 45.1445Q22.1608 46.457 23.0709 47.2656Q23.985 48.0703 25.3756 48.0703Q26.1608 48.0703 26.817 47.793Q27.4733 47.5117 27.9537 46.9688L28.5904 47.7031Q28.0318 48.375 27.192 48.7266Q26.3522 49.0781 25.3443 49.0781Q24.0475 49.0781 23.0475 48.5273Q22.0475 47.9766 21.485 47Q20.9264 46.0234 20.9264 44.793Q20.9264 43.5586 21.4615 42.5859Q22.0006 41.6094 22.9342 41.0664Q23.8717 40.5195 25.0397 40.5195Q26.2076 40.5195 27.1334 41.0664Q28.0631 41.6094 28.5904 42.5781Q29.1217 43.543 29.1217 44.793L29.1022 45.1445ZM25.0397 41.4961Q23.8248 41.4961 23.0006 42.2734Q22.1764 43.0469 22.0631 44.2969L28.0318 44.2969Q27.9186 43.0469 27.0943 42.2734Q26.2701 41.4961 25.0397 41.4961ZM34.9263 49.0781Q33.6802 49.0781 32.6958 48.5352Q31.7115 47.9922 31.149 47.0078Q30.5904 46.0234 30.5904 44.793Q30.5904 43.5586 31.149 42.5859Q31.7115 41.6094 32.6958 41.0664Q33.6802 40.5195 34.9263 40.5195Q36.0162 40.5195 36.8716 40.9453Q37.7271 41.3672 38.2232 42.1836L37.3755 42.7617Q36.9615 42.1367 36.3208 41.8242Q35.6802 41.5117 34.9263 41.5117Q34.0162 41.5117 33.2857 41.9219Q32.5591 42.3281 32.149 43.082Q31.7427 43.832 31.7427 44.793Q31.7427 45.7695 32.149 46.5156Q32.5591 47.2578 33.2857 47.6641Q34.0162 48.0703 34.9263 48.0703Q35.6802 48.0703 36.3208 47.7695Q36.9615 47.4648 37.3755 46.8398L38.2232 47.4141Q37.7271 48.2305 36.8638 48.6562Q36.0005 49.0781 34.9263 49.0781ZM44.6071 40.5195Q46.193 40.5195 47.1266 41.4414Q48.0641 42.3594 48.0641 44.1211L48.0641 49L46.9274 49L46.9274 44.2305Q46.9274 42.9219 46.2712 42.2344Q45.6149 41.543 44.4001 41.543Q43.0407 41.543 42.2477 42.3516Q41.4548 43.1602 41.4548 44.5859L41.4548 49L40.3219 49L40.3219 37.1289L41.4548 37.1289L41.4548 42.0547Q41.9196 41.3203 42.736 40.9219Q43.5524 40.5195 44.6071 40.5195Z" fill="#000000" fill-opacity="1.000000" fill-rule="evenodd"/>
</svg>
